# xmcd
#
# Track frame offsets: 
#        150
#        13689
#        26289
#        40989
#        55263
#        69618
#        81470
#        95232
#        109579
#        121565
#        134695
#        148920
#        164036
#        177327
#        190631
#        205020
#        218543
#        230118
#        242763
#        255046
#
# Disc length: 3555 seconds
#
# Revision: 3
# Processed by: cddbd v1.5.2PL0 Copyright (c) Steve Scherf et al.
# Submitted via: ExactAudioCopy v0.99pb4
#
DISCID=1c0de114
DTITLE=Various Artist - Diggin' Deeper: 200 Legendary Blues Treasures [disc 5
DTITLE=]
DYEAR=2004
DGENRE=Blues
TTITLE0=Big Bill Broonzy - Come Home Early
TTITLE1=Memphis Minnie - Moonshine
TTITLE2=Arthur Crudup - Who's Been Fooling You
TTITLE3=Sleepy John Estes - Floating Bridge
TTITLE4=John Lee Hooker - Sally Mae
TTITLE5=Bukka White - Bukka's Jitterbug Swing
TTITLE6=Leadbelly - Fort Worth and Dallas Blues
TTITLE7=Blind Willie McTell - Experience Blues
TTITLE8=Robert Johnson - Phonograph Blues
TTITLE9=Joe Turner - Ice Man
TTITLE10=Kokomo Arnold - Cold Winter Blues
TTITLE11=Ma Rainey - Countin' the Blues
TTITLE12=Jimmy Yancey - Janie's Joys
TTITLE13=Bessie Smith - Baby Won't You Please Come Home
TTITLE14=Muddy Waters - Burr Clover Blues
TTITLE15=Lightnin' Hopkins - Katie May
TTITLE16=Brownie McGhee - Step It Up and Go
TTITLE17=John Lee Williamson - Train Fare Blues
TTITLE18=Blind Boy Fuller and Sonny Terry - I Want Some of Your Pie
TTITLE19=Mississippi John Hurt - Praying on the Old Camp Ground
EXTD=10CD: Documents/Membran 222024-321 (2004), EAN 4011222220240, ISB
EXTD=N 978-3-87562-765-8.
EXTT0=(Bill Broonzy)
EXTT1=(E. Lawler)
EXTT2=(Arthur Crudup/M. Draper)
EXTT3=(John Estes)
EXTT4=(John Lee Hooker)
EXTT5=(Bukka White)
EXTT6=(Huddie Ledbetter)
EXTT7=(Willie McTell)
EXTT8=(Robert Johnson)
EXTT9=(Jordan)
EXTT10=(James Arnold)
EXTT11=(trad./Ma Rainey)
EXTT12=(Jimmy Yancey)
EXTT13=(C. Williams/C. Warfield)
EXTT14=(McKinley Morganfield)
EXTT15=(Sam Hopkins)
EXTT16=(Walter McGhee)
EXTT17=(John Lee Williamson)
EXTT18=(Fuller)
EXTT19=(trad.)
PLAYORDER=
